<svg width="48" height="48" viewBox="0 0 49 48" fill="none" xmlns="http://www.w3.org/2000/svg">
<path d="M48.5 24C48.5 36.969 37.7646 47.5 24.5 47.5C11.2354 47.5 0.5 36.969 0.5 24C0.5 11.031 11.2354 0.5 24.5 0.5C37.7646 0.5 48.5 11.031 48.5 24Z" stroke="#E47127"/>
<path d="M24.5 10.3384C20.7781 10.3384 20.3143 10.3563 18.8577 10.4178C17.3951 10.4895 16.4058 10.7158 15.5329 11.054C14.6326 11.4058 13.8658 11.8729 13.1084 12.633C12.3459 13.3887 11.8735 14.1538 11.526 15.0522C11.1871 15.9232 10.9603 16.9104 10.8884 18.3698C10.8225 19.8241 10.8088 20.2861 10.8088 23.9999C10.8088 27.7138 10.8268 28.1766 10.8884 29.63C10.9603 31.0852 11.1871 32.0766 11.526 32.9476C11.8786 33.846 12.3467 34.6111 13.1084 35.3669C13.8658 36.1278 14.6326 36.5991 15.5329 36.9458C16.4058 37.2797 17.3994 37.5103 18.8577 37.582C20.3151 37.6478 20.7781 37.6615 24.5 37.6615C28.2219 37.6615 28.6858 37.6435 30.1423 37.582C31.6006 37.5103 32.5942 37.2789 33.4671 36.9458C34.3675 36.594 35.1343 36.1269 35.8916 35.3669C36.6542 34.6111 37.1266 33.8503 37.474 32.9476C37.8086 32.0766 38.0397 31.0852 38.1116 29.63C38.1775 28.1757 38.1912 27.7138 38.1912 23.9999C38.1912 20.2861 38.1732 19.8232 38.1116 18.3698C38.0397 16.9147 37.8078 15.9181 37.474 15.0522C37.1214 14.1538 36.6533 13.3887 35.8916 12.633C35.1343 11.8721 34.3717 11.4007 33.4671 11.054C32.5942 10.7158 31.6006 10.4895 30.1423 10.4178C28.6849 10.352 28.2219 10.3384 24.5 10.3384ZM24.5 12.7978C28.1552 12.7978 28.5916 12.8157 30.0362 12.8772C31.3687 12.9395 32.0944 13.1615 32.5763 13.3494C33.219 13.5979 33.6683 13.8917 34.1544 14.3716C34.631 14.8472 34.9254 15.3007 35.1745 15.942C35.3628 16.4228 35.5853 17.1469 35.6477 18.4765C35.7094 19.918 35.7273 20.3544 35.7273 24.0008C35.7273 27.6471 35.7094 28.0835 35.6426 29.525C35.5707 30.8546 35.3482 31.5787 35.1608 32.0595C34.9015 32.7008 34.6122 33.1492 34.1347 33.6342C33.6529 34.1099 33.1941 34.4036 32.5566 34.6521C32.0807 34.84 31.3447 35.062 30.0071 35.1244C28.5548 35.1858 28.1269 35.2038 24.4624 35.2038C20.7978 35.2038 20.3708 35.1858 18.9167 35.1192C17.5843 35.0475 16.8491 34.8255 16.3673 34.6385C15.7169 34.3797 15.271 34.0911 14.7935 33.6146C14.3117 33.1338 14.0053 32.6761 13.7691 32.0399C13.5774 31.5651 13.3583 30.8307 13.2873 29.496C13.2385 28.0639 13.2154 27.6198 13.2154 23.9803C13.2154 20.3424 13.2385 19.8975 13.2873 18.4475C13.3583 17.1128 13.5774 16.3801 13.7691 15.9036C14.0053 15.2537 14.3125 14.8097 14.7935 14.3289C15.2702 13.8532 15.7169 13.5458 16.3673 13.305C16.8491 13.118 17.5663 12.896 18.9039 12.8294C20.3562 12.7773 20.7841 12.7585 24.4435 12.7585L24.5 12.7978ZM24.5 16.9881C20.6138 16.9881 17.4713 20.1281 17.4713 24.0016C17.4713 27.8794 20.6181 31.0151 24.5 31.0151C28.3862 31.0151 31.5287 27.8752 31.5287 24.0016C31.5287 20.1238 28.3819 16.9881 24.5 16.9881ZM24.5 28.5558C21.9771 28.5558 19.936 26.5191 19.936 24.0016C19.936 21.4842 21.9771 19.4475 24.5 19.4475C27.0229 19.4475 29.064 21.4842 29.064 24.0016C29.064 26.5191 27.0229 28.5558 24.5 28.5558ZM33.4552 16.708C33.4552 17.6158 32.7149 18.3485 31.8095 18.3485C30.8997 18.3485 30.1654 17.6149 30.1654 16.708C30.1654 15.8054 30.9049 15.071 31.8095 15.071C32.714 15.071 33.4552 15.8054 33.4552 16.708Z" fill="#E47127"/>
</svg>
