<svg width="46" height="48" viewBox="0 0 46 48" fill="none" xmlns="http://www.w3.org/2000/svg">
<path d="M23 47.5C10.5934 47.5 0.499998 36.999 0.499999 24C0.5 11.001 10.5934 0.499998 23 0.499999C35.4066 0.5 45.5 11.001 45.5 24C45.5 36.999 35.4066 47.5 23 47.5Z" stroke="#E47127"/>
<path d="M32.4708 34.6482L32.4928 34.6109L34.677 29.8939L28.2966 24.8026L25.361 27.145C24.2539 27.0749 23.2093 26.5753 22.4251 25.741C21.6409 24.9066 21.1714 23.7953 21.1055 22.6174L23.3071 19.4941L18.5219 12.7058L14.1255 15.0104L14.0883 15.0298L14.0533 15.0531C13.8671 15.1761 13.7135 15.3478 13.6072 15.5518C13.501 15.7557 13.4455 15.9853 13.4462 16.2185L13.4462 17.4356C13.4462 19.7808 13.8804 22.1031 14.7239 24.2698C15.5675 26.4364 16.8039 28.4051 18.3625 30.0635C19.9212 31.7218 21.7716 33.0372 23.808 33.9347C25.8445 34.8321 28.0272 35.294 30.2315 35.294L31.3755 35.294C31.5947 35.2948 31.8105 35.2358 32.0022 35.1228C32.1939 35.0097 32.3553 34.8464 32.4708 34.6482ZM30.2315 33.5509C21.8795 33.5509 15.0846 26.3216 15.0846 17.4356L15.0846 16.4508L18.0267 14.9088L21.2592 19.4944L19.4596 22.0474L19.4596 22.3379C19.4614 24.0768 20.1115 25.7439 21.2672 26.9734C22.4228 28.203 23.9897 28.8946 25.6241 28.8966L25.8971 28.8966L28.2967 26.9819L32.6064 30.4207L31.1569 33.5509L30.2315 33.5509Z" fill="#E47127"/>
</svg>
