<svg xmlns="http://www.w3.org/2000/svg" width="48" height="48" fill="none" viewBox="0 0 51 48"><path stroke="#E47127" d="M48.5 24C48.5 36.969 37.7646 47.5 24.5 47.5C11.2354 47.5 0.5 36.969 0.5 24C0.5 11.031 11.2354 0.5 24.5 0.5C37.7646 0.5 48.5 11.031 48.5 24Z"/><path fill="#E47127" d="M10.5 13.2922V33.9692H40.5V13.2922H10.5ZM24.3 25.6553C24.6469 25.8776 25.0677 25.9977 25.5 25.9977C25.9323 25.9977 26.3531 25.8776 26.7 25.6553L28.1667 24.7076L38.5 31.3845V32.2461H12.5V31.3845L22.8333 24.7076L24.3 25.6553ZM25.5 24.2769L12.5 15.8769V15.0153H38.5V15.8769L25.5 24.2769ZM12.5 18.0307L21.1667 23.6307L12.5 29.2307V18.0307ZM38.5 29.2307L29.8333 23.6307L38.5 18.0307V29.2307Z"/></svg>